<svg data-v-0dd9719b="" version="1.0" xmlns="http://www.w3.org/2000/svg" xmlns:xlink="http://www.w3.org/1999/xlink" width="100%" height="100%" viewBox="0 0 340.000000 250.000000" preserveAspectRatio="xMidYMid meet" color-interpolation-filters="sRGB" style="margin: auto;"> <rect data-v-0dd9719b="" x="0" y="0" width="100%" height="100%" fill="#ffffff" fill-opacity="0" class="background"></rect> <rect data-v-0dd9719b="" x="0" y="0" width="100%" height="100%" fill="url(#watermark)" fill-opacity="1" class="watermarklayer"></rect> <g data-v-0dd9719b="" fill="#333" class="iconlinesvg-g iconlinesvg" transform="translate(72.1070556640625,98.06693649291992)"><g class="tp-name" transform="matrix(0.9118253475027126,0,0,0.9118253475027126,8.631676348757594,2.374813515424158)" opacity="1"><g transform="translate(0, 0)"><g><g class="imagesvg"><g><rect fill="#333" fill-opacity="0" stroke-width="2" x="0" y="0" width="54.16346797237787" height="53.86612695160502" class="image-rect"></rect> <svg x="0" y="0" width="54.16346797237787" height="53.86612695160502" filtersec="colorsb5533048623" class="image-svg-svg primary" style="overflow: visible;"><svg xmlns="http://www.w3.org/2000/svg" viewBox="0 0 94.69999694824219 94.18000030517578"><path d="M47.07 80.09a5.18 5.18 0 0 1 .21.52 5.18 5.18 0 0 1 .21-.52v-.17l-.22.1-.22-.1s.02.08.02.17zM86.56 71.69c-3.17 4.54-8.48 7.83-16.59 8.57-1.46.14-2.83.28-4.11.44a19.82 19.82 0 0 0 18.77 13.46H94.7zM24.6 80.26c-8-.73-13.33-4-16.52-8.44L0 94.16h9.8A19.83 19.83 0 0 0 28.57 80.7c-1.25-.17-2.57-.31-3.97-.44z" fill="#603957"></path><path d="M47.35 81.2v-1.84c0-10.68-5.47-18.13-15.09-22.79-20.51-9.93-16.48-22.85-16.48-22.85C4.92 44.07.41 73.91 26.21 76.27c17.25 1.58 21.14 4.93 21.14 4.93z" fill="#05b7c1"></path><path d="M47.35 81.2v-1.84c0-10.68 5.47-18.13 15.08-22.79 20.51-9.93 16.48-22.85 16.48-22.85 10.87 10.35 15.38 40.19-10.43 42.55-17.24 1.58-21.13 4.93-21.13 4.93z" fill="#05b7c1"></path><path d="M64.7 76.67l-4.45-2.53L47.35 80l-12.91-5.86L30 76.67s9.51 1.39 11.23 8a12.42 12.42 0 0 1-1.47 9.51h15.17a12.47 12.47 0 0 1-1.47-9.51c1.73-6.61 11.24-8 11.24-8z" fill="#05b7c1"></path><path d="M60.54 0H34.16L20.1 38.85c2.08 3.8 6 8.06 13.31 11.88C39.31 53.81 45.55 59 47.35 65c1.79-6 8-11.14 13.93-14.22 7.3-3.82 11.23-8.08 13.32-11.88zM47.35 47.68c-1.89-5.72-7.12-9.75-7.12-9.75l7.12-17.6 7.12 17.6s-5.24 4.07-7.12 9.75z" fill="#fd9314"></path></svg></svg> <!----></g></g></g></g><g transform="translate(58, 8.28804667849008)"><g data-gra="path-name" fill="#333" transform="scale(1)"><path d="M8.47-15.72L8.47-15.72L8.47 0L3.83 0L3.83-27.01L8.26-27.01L8.26-22.37Q11.29-27.82 15.92-27.82L15.92-27.82Q16.33-27.82 16.73-27.61L16.73-27.61Q16.93-27.61 17.13-27.61L17.13-27.61L17.13-22.78L15.32-22.78Q8.87-22.37 8.47-15.72Z" transform="translate(-3.829787234042553, 36.88689809630459)"></path></g></g><g transform="translate(75, 8.28804667849008)"><g data-gra="path-name" fill="#333" transform="scale(1)"><path d="M13.30-27.01L13.30-23.18L8.87-23.18L8.87-5.64Q8.87-3.43 11.49-3.43L11.49-3.43L13.30-3.43L13.30 0Q12.09 0 10.48 0L10.48 0Q10.08 0 9.88 0L9.88 0Q4.03 0 4.23-5.24L4.23-5.24L4.23-23.18L0.81-23.18L0.81-27.01L4.23-27.01L4.23-34.47L8.87-34.47L8.87-27.01L13.30-27.01Z" transform="translate(-0.8062709966405376, 36.88689809630459)"></path></g></g><g transform="translate(91, 8.28804667849008)"><g data-gra="path-name" fill="#333" transform="scale(1)"><path d="M3.83-36.89L8.87-36.89L8.87-4.43L27.61-4.43L27.61 0L3.83 0L3.83-36.89Z" transform="translate(-3.8297872340425534, 36.88689809630459)"></path></g></g><g transform="translate(118, 8.28804667849008)"><g data-gra="path-name" fill="#333" transform="scale(1)"><path d="M7.46-18.75L7.46-18.75L3.23-18.75Q3.43-27.82 14.31-27.82L14.31-27.82Q23.99-27.41 24.19-20.16L24.19-20.16L24.19-4.64Q24.19-3.02 25.80-3.02L25.80-3.02Q26.00-3.02 26.41-3.02L26.41-3.02Q27.01-3.23 27.41-3.23L27.41-3.23L27.41 0Q27.01 0 26.41 0L26.41 0Q25.40 0.20 24.79 0.20L24.79 0.20Q19.96 0.20 20.16-3.63L20.16-3.63Q16.13 0.40 10.28 0.40L10.28 0.40Q2.22 0 1.81-7.05L1.81-7.05Q2.02-14.31 10.08-15.52L10.08-15.52L17.54-16.33Q19.96-16.73 19.96-19.55L19.96-19.55Q19.96-23.99 13.51-23.99L13.51-23.99Q7.86-23.99 7.46-18.75ZM19.75-9.27L19.75-9.27L19.75-13.71Q18.14-12.70 12.30-11.89L12.30-11.89Q6.65-11.49 6.65-7.66L6.65-7.66Q6.65-3.02 11.29-3.02L11.29-3.02Q19.15-3.63 19.75-9.27Z" transform="translate(-1.8141097424412096, 36.88689809630459)"></path></g></g><g transform="translate(147, 8.28804667849008)"><g data-gra="path-name" fill="#333" transform="scale(1)"><path d="M25.20-18.34L25.20-18.34L25.20 0L20.76 0L20.76-16.53Q21.16-23.99 14.92-23.58L14.92-23.58Q8.06-23.18 7.86-14.71L7.86-14.71L7.86 0L3.23 0L3.23-27.01L7.66-27.01L7.66-23.18Q10.88-27.82 15.92-27.82L15.92-27.82Q24.99-27.61 25.20-18.34Z" transform="translate(-3.2250839865621503, 36.88689809630459)"></path></g></g><g transform="translate(172, 8.28804667849008)"><g data-gra="path-name" fill="#333" transform="scale(1)"><path d="M21.16-36.89L25.60-36.89L25.60 0L21.37 0L21.37-3.63Q18.95 0.40 13.71 0.40L13.71 0.40Q2.42 0 1.81-14.31L1.81-14.31Q2.42-27.21 13.10-27.82L13.10-27.82Q17.33-27.82 20.76-23.78L20.76-23.78Q20.96-23.38 21.16-23.18L21.16-23.18L21.16-23.38L21.16-36.89ZM6.45-13.51L6.45-13.51Q6.85-3.43 13.71-3.02L13.71-3.02Q20.96-3.83 21.16-12.09L21.16-12.09Q21.16-23.58 13.91-23.58L13.91-23.58Q6.25-23.58 6.45-13.51Z" transform="translate(-1.8141097424412096, 36.88689809630459)"></path></g></g></g> <!----></g><defs v-gra="od"></defs></svg>